<?xml version="1.0" encoding="UTF-8" standalone="no"?>
<svg
   xmlns:dc="http://purl.org/dc/elements/1.1/"
   xmlns:cc="http://creativecommons.org/ns#"
   xmlns:rdf="http://www.w3.org/1999/02/22-rdf-syntax-ns#"
   xmlns:svg="http://www.w3.org/2000/svg"
   xmlns="http://www.w3.org/2000/svg"
   xmlns:sodipodi="http://sodipodi.sourceforge.net/DTD/sodipodi-0.dtd"
   xmlns:inkscape="http://www.inkscape.org/namespaces/inkscape"
   width="1020"
   height="593"
   id="svg2258"
   sodipodi:version="0.32"
   inkscape:version="0.47 r22583"
   sodipodi:docname="1848.svg"
   inkscape:output_extension="org.inkscape.output.svg.inkscape"
   version="1.0"
   sodipodi:modified="true">
  <metadata
     id="metadata2318">
    <rdf:RDF>
      <cc:Work
         rdf:about="">
        <dc:format>image/svg+xml</dc:format>
        <dc:type
           rdf:resource="http://purl.org/dc/dcmitype/StillImage" />
      </cc:Work>
      <cc:Work
         rdf:about="">
        <dc:format>image/svg+xml</dc:format>
        <dc:type
           rdf:resource="http://purl.org/dc/dcmitype/StillImage" />
      </cc:Work>
    </rdf:RDF>
  </metadata>
  <defs
     id="defs2316">
    <inkscape:perspective
       sodipodi:type="inkscape:persp3d"
       inkscape:vp_x="0 : 296.5 : 1"
       inkscape:vp_y="0 : 1000 : 0"
       inkscape:vp_z="1020 : 296.5 : 1"
       inkscape:persp3d-origin="510 : 197.66667 : 1"
       id="perspective179" />
  </defs>
  <sodipodi:namedview
     inkscape:window-height="994"
     inkscape:window-width="1680"
     inkscape:pageshadow="2"
     inkscape:pageopacity="0.0"
     guidetolerance="10.0"
     gridtolerance="10.0"
     objecttolerance="10.0"
     borderopacity="1.0"
     bordercolor="#666666"
     pagecolor="#ffffff"
     id="base"
     inkscape:zoom="1"
     inkscape:cx="462.66901"
     inkscape:cy="344.8051"
     inkscape:window-x="-4"
     inkscape:window-y="-4"
     inkscape:current-layer="layer6"
     width="1020px"
     height="593px"
     showgrid="false"
     showguides="true"
     inkscape:guide-bbox="true"
     inkscape:window-maximized="0" />
  <g
     inkscape:groupmode="layer"
     id="layer5"
     inkscape:label="Source Materials" />
  <g
     inkscape:groupmode="layer"
     id="layer4"
     inkscape:label="Territories" />
  <g
     id="g2260"
     style="fill: rgb(211, 211, 211);"
     inkscape:label="States" />
  <g
     inkscape:groupmode="layer"
     id="layer3"
     inkscape:label="Whig states"
     style="display: inline;">
    <path
       style="fill: rgb(105, 141, 197); fill-opacity: 1;"
       d="M 243.03125,139.375 L 243.03125,139.4375 L 243.125,139.5 L 243.03125,139.375 z "
       id="path3044" />
    <path
       d="M 873.19331,180.05038 L 872.56579,175.84599 L 871.75749,171.48115 L 870.14088,165.4997 L 865.989,166.40438 L 844.16479,171.17336 L 844.81143,174.48742 L 846.26638,181.76216 L 846.26638,189.84519 L 845.13475,192.10845 L 846.96715,194.21757 L 851.9225,190.81637 L 855.47903,187.58316 L 857.41895,185.48157 L 858.22726,186.12821 L 860.97548,184.67327 L 866.14862,183.54165 L 873.19331,180.05038 z "
       id="CT"
       style="fill: rgb(240, 200, 98); fill-opacity: 1; display: inline;" />
    <path
       d="M 899.97704,173.85121 L 902.14896,173.16533 L 902.60622,171.45066 L 903.63502,171.56497 L 904.66382,173.85121 L 903.4064,174.30845 L 899.5198,174.42277 L 899.97704,173.85121 z M 890.6035,174.65139 L 892.88972,172.02222 L 894.49009,172.02222 L 896.31908,173.50827 L 893.91854,174.53707 L 891.74662,175.56587 L 890.6035,174.65139 z M 855.80437,152.6632 L 873.26374,148.46002 L 875.527,147.81338 L 877.62858,144.58017 L 881.36535,142.91686 L 884.25459,147.3297 L 881.82968,152.50284 L 881.50636,153.95778 L 883.44629,156.54435 L 884.57791,155.73605 L 886.35618,155.73605 L 888.61942,158.32261 L 892.49928,164.30405 L 896.05581,164.78903 L 898.31905,163.81907 L 900.09732,162.0408 L 899.28901,159.29258 L 897.18743,157.67597 L 895.73248,158.48427 L 894.76252,157.19099 L 895.2475,156.70601 L 897.34909,156.54435 L 899.12735,157.35265 L 901.06728,159.77756 L 902.03724,162.68745 L 902.36056,165.11235 L 898.15739,166.5673 L 894.27754,168.50722 L 890.39769,173.03372 L 888.45776,174.48866 L 888.45776,173.5187 L 890.88267,172.06375 L 891.36765,170.28549 L 890.55935,167.21394 L 887.64946,168.66888 L 886.84116,170.12383 L 887.32614,172.38707 L 885.25981,173.3875 L 882.51261,168.86037 L 879.11773,164.49553 L 877.04723,162.68306 L 870.51396,164.55926 L 865.42163,165.61005 L 843.59742,170.37904 L 843.19483,165.43441 L 843.84147,154.84564 L 849.01462,153.9565 L 855.80437,152.6632 z "
       id="MA"
       style="fill: rgb(240, 200, 98); fill-opacity: 1; display: inline;" />
    <path
       d="M 844.34355,153.72643 L 843.53525,148.0683 L 841.14454,138.09663 L 840.4979,137.77331 L 837.588,136.48002 L 838.3963,133.57013 L 837.588,131.46854 L 834.88795,126.82856 L 835.85792,122.9487 L 835.04961,117.77555 L 832.6247,111.30911 L 831.81913,106.3866 L 858.06661,99.63916 L 858.39094,105.45824 L 860.33087,108.20648 L 860.33087,112.248 L 856.61267,116.28952 L 854.0261,117.42115 L 854.0261,118.55277 L 855.15772,120.33104 L 855.15772,128.89906 L 854.34942,138.11373 L 854.18776,142.96356 L 855.15772,144.25685 L 854.99606,148.78334 L 854.51108,150.56162 L 855.1717,152.12847 L 848.22029,153.5026 L 844.34355,153.72643 z "
       id="VT"
       style="fill: rgb(240, 200, 98); fill-opacity: 1; display: inline;" />
    <path
       d="M 828.61427,189.42238 L 827.48264,188.45242 L 824.89606,188.29076 L 822.63282,186.35084 L 821.00221,180.22171 L 817.54375,180.31225 L 815.10004,177.60405 L 795.71472,181.98599 L 752.71294,190.71568 L 745.18329,191.94367 L 744.44513,185.47533 L 745.87323,184.34995 L 747.16651,183.21833 L 748.13648,181.60172 L 749.91474,180.4701 L 751.85467,178.69183 L 752.33965,177.07523 L 754.44123,174.327 L 755.57286,173.35704 L 755.4112,172.38707 L 754.11791,169.31553 L 752.33965,169.15387 L 750.39972,163.01077 L 753.30961,161.2325 L 757.67444,159.77756 L 761.71596,158.48427 L 764.94917,157.99929 L 771.25392,157.83763 L 773.19385,159.13092 L 774.81045,159.29258 L 776.91204,157.99929 L 779.49861,156.86767 L 784.67174,156.38269 L 786.77333,154.60442 L 788.55159,151.37121 L 790.1682,149.43129 L 792.26978,149.43129 L 794.20971,148.29966 L 794.37137,146.03642 L 792.91643,143.93483 L 792.59311,142.47989 L 793.72473,140.3783 L 793.72473,138.92336 L 791.94646,138.92336 L 790.1682,138.11506 L 789.3599,136.98343 L 789.19824,134.39686 L 795.01801,128.90041 L 795.66465,128.09211 L 797.1196,125.18222 L 800.02949,120.65572 L 802.77772,116.93753 L 804.8793,114.51263 L 807.2944,112.68702 L 810.37576,111.44108 L 815.87221,110.14779 L 819.10542,110.30945 L 823.63192,108.85451 L 831.19711,106.78334 L 831.7169,111.76301 L 834.14182,118.22945 L 834.95012,123.4026 L 833.98016,127.28246 L 836.56673,131.80896 L 837.37503,133.91055 L 836.56673,136.82045 L 839.47663,138.11373 L 840.12327,138.43705 L 843.19483,149.42999 L 842.65854,154.48966 L 842.17356,165.32093 L 842.98186,170.8174 L 843.79016,174.37394 L 845.24511,181.64868 L 845.24511,189.73172 L 844.11348,191.99497 L 845.95281,193.98776 L 846.74936,195.66618 L 844.80944,197.44445 L 845.13276,198.73773 L 846.42604,198.41441 L 847.88099,197.12113 L 850.14423,194.53456 L 851.27586,193.88792 L 852.89246,194.53456 L 855.15571,194.69622 L 863.07707,190.81637 L 865.98696,188.06814 L 867.28024,186.6132 L 871.48341,188.2298 L 868.08854,191.78633 L 864.20869,194.69622 L 857.09563,200.03101 L 854.50907,201.00098 L 848.68929,202.9409 L 844.64778,204.07253 L 843.47304,203.5396 L 843.22902,199.85107 L 843.714,197.10283 L 843.55234,195.00125 L 840.73883,193.30225 L 836.21233,192.33228 L 832.33247,191.20066 L 828.61427,189.42238 z "
       id="NY"
       style="fill: rgb(240, 200, 98); fill-opacity: 1; display: inline;" />
    <path
       d="M 828.16036,190.33018 L 826.05878,192.75509 L 826.05878,195.82665 L 824.11884,198.8982 L 823.95718,200.51482 L 825.25048,201.8081 L 825.08882,204.23302 L 822.82556,205.36464 L 823.63386,208.11287 L 823.79552,209.2445 L 826.54376,209.56782 L 827.51372,212.15439 L 831.07026,214.57931 L 833.49517,216.19591 L 833.49517,217.00422 L 830.26196,220.07578 L 828.64535,222.33902 L 827.1904,225.08726 L 824.92715,226.38054 L 823.7147,227.10802 L 823.4722,228.32048 L 822.86297,230.92722 L 823.95524,233.17141 L 827.18845,236.0813 L 832.03826,238.34455 L 836.07977,238.99119 L 836.24143,240.44613 L 835.43313,241.41609 L 835.75645,244.16432 L 836.56475,244.16432 L 838.66634,241.73942 L 839.47464,236.8896 L 842.22287,232.84809 L 845.29442,226.38167 L 846.42604,220.88522 L 845.7794,219.75359 L 845.61774,210.37728 L 844.00113,206.98242 L 842.86951,207.79072 L 840.12128,208.11404 L 839.6363,207.62906 L 840.76793,206.65909 L 842.86951,204.71917 L 842.93257,203.62534 L 842.54818,200.1915 L 843.03316,197.44326 L 842.8715,195.34167 L 840.28493,194.21004 L 835.75843,193.24008 L 831.87857,192.10845 L 828.16036,190.33018 z "
       id="NJ"
       style="fill: rgb(240, 200, 98); fill-opacity: 1; display: inline;" />
    <path
       d="M 822.20688,226.45982 L 823.33852,225.81317 L 825.60176,225.20074 L 827.05671,222.4525 L 828.67332,220.18925 L 831.90653,217.11769 L 831.90653,216.30939 L 829.48162,214.69279 L 825.92508,212.26787 L 824.95512,209.6813 L 822.20688,209.35798 L 822.04522,208.22635 L 821.23692,205.47812 L 823.50018,204.3465 L 823.66184,201.92158 L 822.36854,200.62829 L 822.5302,199.01168 L 824.47014,195.94013 L 824.47014,192.86857 L 826.81422,190.44366 L 827.02874,189.36021 L 824.44216,189.19855 L 822.17892,187.25863 L 819.754,181.92382 L 816.74942,180.99309 L 814.41919,178.85226 L 795.8282,182.89378 L 752.82642,191.62347 L 743.93507,193.07841 L 743.4394,185.99452 L 737.95187,191.62467 L 736.65858,192.10965 L 732.45629,195.11854 L 735.36705,214.25599 L 737.84871,223.98535 L 741.42051,243.24684 L 744.68982,242.60916 L 756.6334,241.10669 L 794.56003,233.44149 L 809.43624,230.61817 L 817.73659,228.99581 L 818.0037,228.75728 L 820.1053,227.14066 L 822.20688,226.45982 z "
       id="PA"
       style="fill: rgb(240, 200, 98); fill-opacity: 1; display: inline;" />
    <path
       d="M 836.95336,255.30492 L 830.81223,256.59715 L 825.00642,256.75881 L 823.16286,249.6597 L 821.06127,239.96005 L 818.79801,234.30193 L 817.50963,229.9036 L 810.00361,231.52596 L 795.1274,234.34928 L 757.67597,241.90018 L 758.80727,246.91184 L 759.77723,252.56995 L 760.10055,252.24663 L 762.20215,249.82173 L 764.46539,247.20407 L 766.8903,246.58851 L 768.34526,245.13356 L 770.12352,242.54699 L 771.4168,243.19364 L 774.32669,242.87031 L 776.91327,240.76873 L 778.92016,239.31546 L 780.76539,238.83048 L 782.40974,239.96043 L 785.31963,241.41537 L 787.25955,243.19364 L 788.47201,244.72942 L 792.59436,246.42685 L 792.59436,249.33674 L 798.09082,250.63003 L 799.23526,251.17201 L 800.64716,249.14369 L 803.52913,251.11385 L 802.25096,253.59578 L 801.48569,257.58144 L 799.70743,260.16801 L 799.70743,262.2696 L 800.35407,264.04787 L 805.41802,265.40356 L 809.72912,265.34184 L 812.80066,266.31181 L 814.90225,266.63513 L 815.87221,264.53354 L 814.41727,262.43196 L 814.41727,260.65369 L 811.99236,258.5521 L 809.89078,253.05565 L 811.18406,247.72085 L 811.0224,245.61927 L 809.72912,244.32598 C 809.72912,244.32598 811.18406,242.70938 811.18406,242.06274 C 811.18406,241.41609 811.66904,239.96115 811.66904,239.96115 L 813.60897,238.66787 L 815.54889,237.05126 L 816.03387,238.02123 L 814.57893,239.63783 L 813.28565,243.35602 L 813.60897,244.48764 L 815.38723,244.81096 L 815.87221,250.30742 L 813.77063,251.27738 L 814.09395,254.83391 L 814.57893,254.67225 L 815.71055,252.73233 L 817.32716,254.51059 L 815.71055,255.80388 L 815.38723,259.19875 L 817.9738,262.59362 L 821.85365,263.0786 L 823.47026,262.2703 L 826.70681,266.45323 L 828.06516,266.98953 L 834.71883,264.19258 L 836.72641,260.16871 L 836.95336,255.30492 z M 820.32087,264.28945 L 821.45249,266.7952 L 821.61415,268.57347 L 822.74578,270.43257 C 822.74578,270.43257 823.63492,269.54343 823.63492,269.22011 C 823.63492,268.89679 822.90745,266.14855 822.90745,266.14855 L 822.17997,263.80446 L 820.32087,264.28945 z "
       id="MD"
       style="fill: rgb(240, 200, 98); fill-opacity: 1; display: inline;" />
    <path
       d="M 874.07001,179.82344 L 873.58706,175.61904 L 872.77876,171.2542 L 871.08133,165.35359 L 876.82028,163.81781 L 878.43688,164.94943 L 881.83176,169.31427 L 884.74063,173.76056 L 881.82968,175.29696 L 880.5364,175.1353 L 879.40478,176.91357 L 876.97987,178.85349 L 874.07001,179.82344 z "
       id="RI"
       style="fill: rgb(240, 200, 98); fill-opacity: 1; display: inline;" />
    <path
       d="M 822.35259,230.42318 L 822.94187,228.32048 L 822.96339,227.11557 L 821.69394,227.02719 L 819.59234,228.6438 L 818.13739,230.09874 L 819.59234,234.30193 L 821.8556,239.96005 L 823.95718,249.6597 L 825.5738,255.96448 L 830.58528,255.80282 L 836.7274,254.59089 L 834.46317,247.23587 L 833.4932,247.72085 L 829.93667,245.29595 L 828.15841,240.60779 L 826.21848,237.05126 L 823.95524,236.0813 L 821.85365,232.52477 L 822.35259,230.42318 z "
       id="DE"
       style="fill: rgb(240, 200, 98); fill-opacity: 1; display: inline;" />
    <path
       d="M 755.39728,445.50676 L 757.66294,452.82536 L 761.39264,462.56762 L 766.72743,471.94392 L 770.44562,478.24868 L 775.29544,483.74514 L 779.33695,487.46333 L 780.95355,490.37322 L 779.82193,491.6665 L 779.01363,492.95978 L 781.92351,500.39617 L 784.8334,503.30605 L 787.41997,508.64085 L 790.9765,514.46063 L 795.50299,522.70531 L 796.79628,530.30335 L 797.28126,542.26623 L 797.9279,544.04449 L 797.60458,547.43936 L 795.17967,548.73265 L 795.50299,550.67257 L 794.85635,552.6125 L 795.17967,555.0374 L 795.66465,556.97733 L 792.91643,560.21054 L 789.84488,561.66548 L 785.96503,561.82714 L 784.51008,563.44375 L 782.08518,564.41371 L 780.79189,563.92873 L 779.66027,562.95877 L 779.33695,560.04888 L 778.52864,556.65401 L 775.13377,551.48087 L 771.57724,549.21763 L 767.69739,548.89431 L 766.88909,550.18759 L 763.81754,545.82276 L 763.1709,542.26623 L 760.58433,538.22472 L 758.80607,537.09309 L 757.18946,539.19468 L 755.4112,538.87136 L 753.30961,533.85988 L 750.39972,529.98003 L 747.48983,524.64524 L 744.90327,521.57369 L 741.34674,517.8555 L 743.44832,515.43059 L 746.68153,509.93413 L 746.51987,508.31753 L 741.99338,507.34757 L 740.37677,507.99421 L 740.7001,508.64085 L 743.28666,509.61081 L 741.83172,514.13731 L 741.02342,514.62229 L 739.24515,510.58078 L 737.95187,505.73096 L 737.62855,502.98273 L 739.08349,498.29458 L 739.08349,488.75661 L 736.01194,485.03842 L 734.71866,481.96687 L 729.54552,480.67359 L 727.6056,480.02695 L 725.98899,477.44038 L 722.59412,475.82377 L 721.4625,472.4289 L 718.71427,471.45894 L 716.28936,467.74075 L 712.08619,466.28581 L 709.1763,464.83086 L 706.58974,464.83086 L 702.54822,465.63917 L 702.38656,467.57909 L 703.19487,468.54905 L 702.70988,469.68068 L 699.63834,469.51902 L 695.92015,473.07555 L 692.36361,475.01547 L 688.48376,475.01547 L 685.25055,476.30876 L 684.92723,473.56053 L 683.31063,471.6206 L 680.40074,470.48898 L 678.78414,469.03403 L 670.70111,465.15418 L 663.10307,463.37592 L 658.73824,464.02256 L 652.7568,464.50754 L 646.77536,466.60913 L 643.29612,467.22209 L 643.0582,459.17234 L 640.47163,457.23242 L 638.69336,455.45415 L 639.01668,452.38259 L 649.2013,451.08931 L 674.7437,448.17942 L 681.53345,447.53278 L 686.96945,447.81305 L 689.55602,451.69291 L 691.01096,453.14785 L 699.10912,453.66307 L 709.92887,453.01643 L 731.44126,451.72314 L 736.88698,451.04877 L 741.46423,451.0765 L 741.62589,453.98639 L 745.44989,454.79469 L 745.77321,449.98792 L 744.15661,445.46141 L 745.11145,444.72869 L 750.22414,445.18344 L 755.39728,445.50676 z M 767.94269,577.91184 L 770.36761,577.2652 L 771.66089,577.02271 L 773.11585,574.67862 L 775.45993,573.06201 L 776.75322,573.547 L 778.45066,573.87032 L 778.85481,574.92111 L 775.37911,576.13357 L 771.17591,577.58852 L 768.83183,578.80098 L 767.94269,577.91184 z M 781.44139,572.90035 L 782.65385,573.95115 L 785.40209,571.84956 L 790.7369,567.64637 L 794.4551,563.7665 L 796.96085,557.1384 L 797.93082,555.44096 L 798.09248,552.04608 L 797.365,552.53106 L 796.39504,555.36013 L 794.94008,559.96746 L 791.70686,565.22146 L 787.34202,569.42464 L 783.94714,571.36457 L 781.44139,572.90035 z "
       id="FL"
       style="fill: rgb(240, 200, 98); fill-opacity: 1; display: inline;" />
    <path
       d="M 602.20213,472.99473 L 601.17268,470.37851 L 600.02956,467.28625 L 596.7137,463.74511 L 597.62986,456.99488 L 597.51137,455.85345 L 596.24976,456.19555 L 588.01934,457.10836 L 562.99102,457.56728 L 562.30683,455.1726 L 563.21964,446.7169 L 566.53552,440.77105 L 571.56688,432.08003 L 570.99281,429.68201 L 572.2494,429.00116 L 572.70833,427.04867 L 570.42209,424.99274 L 570.3103,423.05029 L 568.47964,418.70478 L 568.02323,412.76393 L 558.2984,412.87741 L 539.0941,413.79191 L 516.88913,413.82048 L 516.9177,423.39405 L 517.60357,432.76758 L 518.28944,436.65416 L 520.80429,440.76937 L 521.71878,445.79908 L 526.06261,451.28601 L 526.29123,454.48673 L 526.9771,455.1726 L 526.29123,463.63164 L 523.31914,468.66133 L 524.9195,470.71894 L 524.23362,473.23378 L 523.54776,480.54971 L 522.17602,483.75042 L 522.29848,487.36687 L 526.98496,485.84672 L 535.06798,485.5234 L 545.41425,489.07993 L 551.88067,490.21156 L 555.59886,488.75661 L 558.83207,489.88824 L 562.06528,490.8582 L 562.87358,488.75661 L 559.64037,487.62499 L 557.0538,488.10997 L 554.30557,486.49337 C 554.30557,486.49337 554.46724,485.20008 555.11388,485.03842 C 555.76052,484.87676 558.18543,484.06846 558.18543,484.06846 L 559.96369,485.5234 L 561.74196,484.55344 L 564.97517,485.20008 L 566.43011,487.62499 L 566.75343,489.88824 L 571.27992,490.21156 L 573.05819,491.98982 L 572.24989,493.60643 L 570.9566,494.41473 L 572.57321,496.03133 L 580.97955,499.58786 L 584.53608,498.29458 L 585.50605,495.86967 L 588.09261,495.22303 L 589.87088,493.76809 L 591.16416,494.73805 L 591.97246,497.64794 L 589.70922,498.45624 L 590.35586,499.10288 L 593.75073,497.8096 L 596.01398,494.41473 L 596.82228,493.92975 L 594.72069,493.60643 L 595.52899,491.98982 L 595.36733,490.53488 L 597.46892,490.0499 L 598.60054,488.75661 L 599.24718,489.56491 C 599.24718,489.56491 599.08552,492.63646 599.89383,492.63646 C 600.70213,492.63646 604.097,493.28311 604.097,493.28311 L 608.13851,495.22303 L 609.10847,496.67798 L 612.01836,496.67798 L 613.14999,497.64794 L 615.41323,494.57639 L 615.41323,493.12144 L 614.11995,493.12144 L 610.72508,490.37322 L 604.9053,489.56491 L 601.67209,487.30167 L 602.80372,484.55344 L 605.06696,484.87676 L 605.22862,484.23012 L 603.45036,483.26016 L 603.45036,482.77517 L 606.68357,482.77517 L 608.46183,479.70363 L 607.16855,477.7637 L 606.84523,475.01547 L 605.39028,475.17713 L 603.45036,477.27872 L 602.80372,479.86529 L 599.73217,479.21864 L 598.7622,477.44038 L 600.54047,475.50045 L 602.56122,473.7222 L 602.20213,472.99473 z "
       id="LA"
       style="fill: rgb(240, 200, 98); fill-opacity: 1; display: inline;" />
    <path
       d="M 832.10653,298.47179 L 833.81653,303.17039 L 837.37306,309.63681 L 839.79796,312.06172 L 840.4446,314.32497 L 838.0197,314.48663 L 838.828,315.13327 L 838.50468,319.33644 L 835.91811,320.62972 L 835.27147,322.73131 L 833.97819,325.6412 L 830.25999,327.2578 L 827.83509,326.93448 L 826.38014,326.77282 L 824.76354,325.47954 L 825.08686,326.77282 L 825.08686,327.74279 L 827.02679,327.74279 L 827.83509,329.03607 L 825.89516,335.34083 L 830.09833,335.34083 L 830.74498,336.95743 L 833.00822,334.69419 L 834.30151,334.2092 L 832.36158,337.76573 L 829.29003,342.61555 L 827.99675,342.61555 L 826.86512,342.13057 L 824.1169,342.77721 L 818.94376,345.20212 L 812.47734,350.53691 L 809.08247,355.22506 L 807.14255,361.69148 L 806.65757,364.11639 L 801.96941,364.60137 L 796.51628,365.93803 L 786.56987,357.7355 L 773.96033,350.13745 L 771.05044,349.32914 L 758.44091,350.78409 L 754.16445,351.53424 L 752.54785,348.30102 L 749.57749,346.18432 L 733.0881,346.6693 L 725.81336,347.4776 L 716.76037,352.00411 L 710.61726,354.59067 L 709.00066,354.91399 L 703.18087,355.88396 L 696.22946,356.69226 L 689.43971,357.17725 L 689.9398,353.12292 L 691.71807,351.66798 L 694.46631,351.02133 L 695.11295,347.30313 L 699.31613,344.55491 L 703.19598,343.09995 L 707.39917,339.54342 L 711.764,337.44183 L 712.41064,334.37027 L 716.2905,330.49042 L 716.93714,330.32876 C 716.93714,330.32876 716.93714,331.46039 717.74545,331.46039 C 718.55375,331.46039 719.68538,331.78371 719.68538,331.78371 L 721.94863,328.22717 L 724.05022,327.58052 L 726.31346,327.90385 L 727.93008,324.34732 L 730.83997,321.76074 L 731.32495,319.65915 L 731.32495,315.69846 L 735.85145,316.42594 L 742.98754,315.13265 L 758.80727,313.19272 L 775.94331,310.60615 L 795.86504,306.60555 L 815.59836,302.44073 L 826.9628,299.6443 L 832.10653,298.47179 z M 836.00199,331.45961 L 838.58857,328.95386 L 841.74095,326.36728 L 843.27673,325.72064 L 843.43839,323.69988 L 842.79175,317.55676 L 841.3368,315.21268 L 840.69015,313.35358 L 841.41763,313.11108 L 844.16587,318.60756 L 844.57002,323.05323 L 844.40836,326.44812 L 841.01348,327.98389 L 838.18441,330.40881 L 837.05279,331.62127 L 836.00199,331.45961 z "
       id="NC"
       style="fill: rgb(240, 200, 98); fill-opacity: 1; display: inline;" />
    <path
       d="M 697.05288,320.62911 L 645.15979,325.6406 L 629.40023,327.41886 L 624.77903,327.93157 L 620.91068,327.90385 L 620.91068,331.78371 L 612.50433,332.26869 L 605.55292,332.91533 L 594.45689,332.96824 L 594.19215,338.80367 L 592.05398,345.07921 L 591.05891,348.09522 L 589.71017,352.47628 L 589.38685,355.06285 L 585.34533,357.32609 L 586.80027,360.88263 L 585.83031,365.24747 L 584.86193,366.03712 L 592.11797,365.84281 L 616.20542,363.90289 L 621.54027,363.74122 L 629.62326,363.25623 L 657.42891,360.66967 L 667.59966,359.86136 L 676.01988,358.8914 L 684.42624,357.75978 L 689.27606,356.95147 L 689.14548,352.44207 L 690.92375,350.98713 L 693.67198,350.34049 L 694.31863,346.62229 L 698.52181,343.87406 L 702.40166,342.4191 L 706.60484,338.86257 L 710.96967,336.76099 L 711.84326,333.23553 L 716.17702,329.35568 L 716.82367,329.19402 C 716.82367,329.19402 716.82367,330.32564 717.63197,330.32564 C 718.44027,330.32564 719.5719,330.64896 719.5719,330.64896 L 721.83515,327.09242 L 723.93674,326.44578 L 726.19998,326.7691 L 727.8166,323.21257 L 729.93216,320.96641 L 730.53062,319.99957 L 730.70699,316.06745 L 729.22336,315.77929 L 726.79845,317.71923 L 718.87707,317.88089 L 706.88174,319.78157 L 697.05288,320.62911 z "
       id="TN"
       style="fill: rgb(240, 200, 98); fill-opacity: 1; display: inline;" />
    <path
       d="M 689.61648,357.97274 L 684.76666,358.78105 L 676.3603,359.91267 L 667.79229,360.8018 L 667.79229,362.98422 L 667.95395,365.08582 L 668.60059,368.48069 L 671.99547,376.40206 L 674.42038,386.26337 L 675.87532,392.40648 L 677.49193,397.25629 L 678.94688,404.2077 L 681.04847,410.51247 L 683.63504,413.90735 L 684.12002,417.30222 L 686.05995,418.11052 L 686.22161,420.21212 L 684.44334,425.06193 L 683.95836,428.29515 L 683.7967,430.23508 L 685.41331,434.59992 L 685.73663,439.93472 L 684.92832,442.35963 L 685.57497,443.16794 L 687.02992,443.97624 L 687.67656,447.37111 L 690.26313,451.25097 L 691.71807,452.70591 L 699.63945,452.86757 L 710.4592,452.22093 L 731.97159,450.92765 L 737.41731,450.25328 L 741.99456,450.28101 L 742.15622,453.1909 L 744.74279,453.9992 L 745.06611,449.63436 L 743.4495,445.10786 L 744.58113,443.49126 L 750.40091,444.29956 L 755.37832,444.61734 L 754.6029,438.31855 L 756.86614,428.2956 L 758.32109,424.09242 L 757.8361,421.50586 L 761.17051,415.26156 L 760.66021,413.90988 L 758.7468,414.61446 L 756.16024,413.32116 L 755.51359,411.21957 L 754.22031,407.66304 L 751.95705,405.56145 L 749.37049,404.91481 L 747.75388,400.06499 L 744.82887,393.72999 L 740.6257,391.79006 L 738.5241,389.85013 L 737.23081,387.26356 L 735.12923,385.32363 L 732.86598,384.03034 L 730.60273,381.12045 L 727.53118,378.85721 L 723.00467,377.07893 L 722.51969,375.62399 L 720.09478,372.7141 L 719.6098,371.25915 L 716.21492,366.35117 L 712.82005,366.51284 L 708.69014,363.4692 L 707.39686,362.17592 L 707.07354,360.39765 L 707.88184,358.45773 L 710.23348,357.22259 L 709.09954,356.00037 L 709.17743,355.70949 L 703.35764,356.67945 L 696.40623,357.48775 L 689.61648,357.97274 z "
       id="GA"
       style="fill: rgb(240, 200, 98); fill-opacity: 1; display: inline;" />
    <path
       d="M 721.7835,297.81821 L 719.4589,300.50114 L 715.2557,304.05768 L 710.9561,309.95985 L 709.1779,311.73812 L 709.1779,313.8397 L 705.298,315.94129 L 699.6399,319.33617 L 696.1203,319.72081 L 644.2524,324.61967 L 628.4929,326.39793 L 623.8717,326.91064 L 620.0033,326.88292 L 619.7764,331.1032 L 611.597,331.24776 L 604.6456,331.8944 L 594.215,332.1 L 596.1278,331.87837 L 598.3078,330.11635 L 600.3654,328.97325 L 600.594,325.77252 L 601.5085,323.94354 L 599.9017,321.40464 L 600.7035,319.49783 L 602.9668,317.71957 L 605.0684,317.07292 L 607.8166,318.36621 L 611.3731,319.65949 L 612.5048,319.33617 L 612.6664,317.07292 L 611.3731,314.64801 L 611.6965,312.38476 L 613.6364,310.92982 L 616.223,310.28317 L 617.8396,309.63653 L 617.0313,307.85826 L 616.3846,305.91833 L 617.5163,305.11003 L 618.567,301.79597 L 621.5578,300.09854 L 627.3776,299.12858 L 630.9341,298.6436 L 632.389,300.58353 L 634.1673,301.39183 L 635.9456,298.15862 L 638.8555,296.70367 L 640.7954,298.32028 L 641.6037,299.4519 L 643.7053,298.96692 L 643.5436,295.57205 L 646.4535,293.95544 L 647.5851,293.14713 L 648.7168,294.76374 L 653.4049,294.76374 L 654.2132,292.66215 L 653.8899,290.39891 L 656.7998,286.84236 L 661.488,282.96251 L 661.9729,278.43601 L 664.7212,278.11269 L 668.601,276.33442 L 671.3493,274.39449 L 671.0259,272.45456 L 669.571,270.99962 L 670.1368,268.81721 L 674.2592,268.57471 L 676.6841,267.76641 L 679.594,269.38301 L 681.2106,273.74785 L 687.0304,274.07117 L 688.8086,275.84944 L 690.9102,276.0111 L 693.3351,274.55616 L 696.4067,275.04114 L 697.7,276.49608 L 700.4482,273.90951 L 702.2265,272.61622 L 703.8431,272.61622 L 704.4897,275.36446 L 706.268,276.33442 L 708.6898,278.54949 L 708.8514,284.04595 L 709.6597,285.66256 L 712.2463,287.1175 L 712.893,289.38076 L 715.8028,293.09895 L 718.3894,295.84719 L 721.7835,297.81821 z "
       id="path28078"
       style="fill: rgb(240, 200, 98); fill-opacity: 1; display: inline;" />
  </g>
  <g
     inkscape:groupmode="layer"
     id="layer6"
     inkscape:label="Democratic States">
    <path
       d="M 761.23097,412.93785 L 759.45391,413.90735 L 756.86734,412.61406 L 756.2207,410.51247 L 754.92742,406.95594 L 752.66416,404.85434 L 750.07759,404.2077 L 748.46099,399.35789 L 745.71275,393.37644 L 741.50958,391.4365 L 739.40798,389.49658 L 738.1147,386.91001 L 736.01311,384.97007 L 733.74986,383.67679 L 731.48661,380.7669 L 728.41506,378.50366 L 723.88855,376.72538 L 723.40357,375.27044 L 720.97867,372.36055 L 720.49368,370.90559 L 717.0988,365.73246 L 713.70393,365.89412 L 709.66241,363.4692 L 708.36913,362.17592 L 708.04581,360.39765 L 708.85411,358.45773 L 711.11736,357.48775 L 710.79404,355.38617 L 716.93714,352.7996 L 725.99014,348.2731 L 733.26487,347.46479 L 749.75427,346.97981 L 752.01752,348.91974 L 753.63412,352.15296 L 757.99897,351.66798 L 770.6085,350.21302 L 773.51839,351.02133 L 786.12793,358.61939 L 796.23601,366.74107 L 790.81484,372.19941 L 788.22827,378.34251 L 787.74329,384.64727 L 786.12669,385.45557 L 784.99506,388.2038 L 782.57016,388.85044 L 780.46857,392.40697 L 777.72034,395.1552 L 775.4571,398.55007 L 773.84049,399.35837 L 770.28396,402.75324 L 767.37407,402.9149 L 768.34404,406.14811 L 763.33256,411.64457 L 761.23097,412.93785 z "
       id="SC"
       style="fill: rgb(105, 141, 197); fill-opacity: 1; display: inline;" />
    <path
       style="fill: rgb(105, 141, 197); fill-opacity: 1; display: inline;"
       d="M 297.40625 207.1875 L 295 226.59375 L 286.09375 297.8125 C 286.0935 297.82148 286.09396 297.83496 286.09375 297.84375 L 286.0625 298.0625 C 286.05048 298.21812 286.05101 298.37445 286.03125 298.53125 C 286.01673 298.64649 286.01041 298.71292 286 298.8125 C 287.60228 298.87238 289.3575 299.08046 291.0625 299.46875 C 294.99919 300.48067 298.99202 301.92536 303.03125 303.90625 C 305.46946 305.1844 306.24148 305.71598 308.28125 307.40625 C 308.30353 307.42558 308.32442 307.44647 308.34375 307.46875 C 310.06053 309.31585 310.95532 311.40283 311.40625 316 L 311.375 317.5625 C 311.48815 325.81848 311.26231 327.7761 310.21875 331.0625 C 309.12027 334.52191 305.74965 338.28735 305.5 338.5625 L 303.0625 342.15625 L 299.875 347.5625 C 299.85703 347.59557 299.83611 347.62695 299.8125 347.65625 L 297.9375 350.09375 L 295.46875 353.375 L 292.53125 357.625 L 292.46875 357.71875 C 289.52294 363.10936 286.32776 370.73281 284.46875 376 C 282.24041 382.31363 281.90024 385.10594 281.875 385.34375 C 281.84873 386.64568 281.87976 387.94777 281.875 389.25 C 281.81513 390.60894 281.50786 392.01882 280.5 393.1875 L 280.53125 393.1875 C 279.58241 394.62718 278.96982 396.40224 278.34375 398.15625 C 278.3357 398.1788 278.32055 398.1962 278.3125 398.21875 C 277.75199 400.33967 276.99954 401.72332 276.59375 403.59375 C 276.5671 403.69953 276.51323 403.79649 276.4375 403.875 C 275.9547 404.38891 275.77102 405.02213 275.75 405.75 L 275.71875 406.375 C 275.646 406.91147 275.67359 407.06108 275.71875 407.21875 C 275.76391 407.37642 275.90902 407.63606 276.03125 408.125 C 276.26723 409.0689 276.21874 409.99728 276.21875 410.90625 C 276.21875 411.86441 276.30571 412.17393 276.6875 412.9375 C 277.01082 413.58416 277.15489 414.43432 277.1875 414.9375 C 277.21839 415.41391 277.35005 415.63131 277.8125 416.09375 C 278.16548 416.44673 278.84457 416.84543 279.28125 417.71875 C 279.53671 418.22966 279.54613 418.70833 279.625 419.09375 C 279.70387 419.47917 279.78035 419.64017 279.9375 419.71875 C 280.6946 420.0973 281.57831 420.65689 281.84375 421.71875 C 281.92411 422.04017 282.0171 422.16122 282.1875 422.375 C 282.3579 422.58878 282.63671 422.89842 282.875 423.375 C 283.08276 423.7905 283.19538 424.3205 283.28125 424.84375 C 283.29028 424.89876 283.30337 424.94564 283.3125 425 L 283.03125 426.375 L 283.6875 431.03125 L 285.625 431.53125 L 288.21875 434.4375 L 289.65625 438.8125 L 294.34375 441.0625 L 295.65625 444.3125 L 302.75 452.21875 L 304.0625 453.84375 L 309.0625 455.9375 L 310.1875 458.03125 L 311.8125 459 L 312.3125 461.75 L 315.53125 468.21875 L 315.53125 476.3125 L 317.78125 481 L 325.21875 488.75 L 330.40625 490.84375 L 332.1875 492.8125 L 332.1875 493.4375 L 336.0625 495.71875 L 338 496.34375 L 339.78125 497.5 L 342.375 498.46875 L 344.78125 496.03125 L 349.15625 489.875 L 350.125 486.15625 L 352.40625 482.9375 L 355.9375 481.46875 L 360.46875 479.71875 L 363.53125 481.96875 L 370.96875 482.625 L 377.78125 483.75 L 380.34375 485.84375 L 380.34375 486.96875 L 382.9375 490.0625 L 388.9375 495.375 L 389.09375 496.84375 L 390.875 498.78125 L 391.6875 502.96875 L 397 515.28125 L 396.84375 517.21875 L 401.0625 519.78125 L 404.59375 526.4375 L 408 530.78125 L 411.25 532.09375 L 412.84375 534.34375 L 411.5625 538.71875 L 412.21875 539.6875 L 413.5 540.3125 L 413.1875 543.71875 L 412.53125 544.375 L 413.1875 546.625 L 416.40625 548.5625 L 417.6875 555.03125 L 419.8125 558.90625 L 427.40625 562.3125 L 432.5625 563.4375 L 436.78125 566.5 L 440 567.15625 L 441.3125 566.6875 L 446.8125 567.8125 L 452.46875 571.6875 L 455.53125 569.75 L 456.5 568.28125 L 454.71875 565.53125 L 453.75 559.40625 L 451.96875 552.4375 L 451.15625 550.03125 L 451.96875 545.5 L 453.09375 541.625 L 454.40625 537.09375 L 455.84375 531.59375 L 453.59375 529.65625 L 454.5625 527.71875 L 458.59375 527.40625 L 462.46875 521.90625 L 465.875 521.25 L 471.6875 517.6875 L 473.46875 516.25 L 479.78125 512.84375 L 485.4375 510.40625 L 490.78125 507.1875 L 493.53125 505.09375 L 499.1875 499.75 L 500.46875 498.9375 L 502.5625 497.5 L 505.15625 495.53125 L 506.125 493.59375 L 516 489.09375 L 521.65625 487.5 L 521.0625 483.09375 L 522.4375 480.375 L 523.28125 473.0625 L 523.625 470.5625 L 522.6875 467.6875 L 525.34375 463.3125 L 526 455.8125 L 525.5 454.8125 L 524.9375 451.9375 L 521.0625 445.625 L 520 441.5625 L 517.3125 436.96875 L 516.8125 432.9375 L 516.125 423.40625 L 515.78125 413.6875 L 515.28125 403.5625 L 513.3125 402.5625 L 510.03125 403.46875 L 507.59375 401.84375 L 504.84375 400.40625 L 501.3125 399.34375 L 498.4375 397.6875 L 497.03125 395.8125 L 495.34375 395.5 L 492.96875 396.75 L 488.6875 396.75 L 488.3125 395.65625 L 487.65625 395.65625 L 484.59375 397.21875 L 482.6875 396.46875 L 479 396.46875 L 478.15625 398.96875 L 476 399.71875 L 472.6875 398.96875 L 469.375 397.78125 L 464.9375 396.75 L 463.78125 394.875 L 463.4375 394.875 L 461.46875 398.96875 L 458.8125 399.1875 L 454.15625 397.1875 L 453.71875 395.3125 L 451.375 395.15625 L 449.875 394.78125 L 447.09375 396.59375 L 444 395.4375 L 444.15625 393.46875 L 443.09375 393.15625 L 441.0625 390.375 L 438.28125 390 L 435.03125 391.5625 L 432.84375 389.75 L 428.875 389.21875 L 426.1875 388.40625 L 421.9375 387.375 L 422.21875 383.96875 L 421.09375 383.5625 L 419.46875 384.28125 L 417.75 383.8125 L 416.84375 382.9375 L 416.15625 384.1875 L 414.34375 383.9375 L 412.625 383.125 L 408.28125 379.28125 L 408.21875 377.21875 L 408.5 360 L 408.375 360 L 409.40625 335.53125 L 409.4375 334.875 L 409.875 324.40625 L 409.90625 323.28125 L 410.5 309.78125 C 410.50439 309.7668 410.50751 309.73569 410.5 309.71875 C 410.47558 309.66369 410.39635 309.60621 410.3125 309.53125 C 410.20285 309.43322 409.96204 309.34531 409.9375 309.34375 C 409.92709 309.34404 409.91666 309.34404 409.90625 309.34375 C 409.24202 309.24632 408.48008 309.2675 407.65625 309.25 C 406.66291 309.24781 405.63325 309.34112 404.5625 309.3125 C 403.23725 309.3353 402.23328 308.58517 401.375 308.03125 C 400.67718 307.61784 400.2799 307.13817 399.8125 307 C 399.39714 306.88317 399.10884 306.64916 398.84375 306.4375 C 398.57866 306.22584 398.33132 306.03393 398.25 306 C 397.98037 305.93248 397.65082 305.90239 397.28125 305.8125 C 396.92006 305.72465 396.49428 305.45795 396.25 305.03125 L 396.21875 305.0625 C 396.08154 304.86499 395.92922 304.8273 395.5625 304.78125 C 395.26522 304.74392 394.85422 304.74242 394.4375 304.59375 C 387.63538 306.95403 381.3125 304.78125 381.3125 304.78125 L 381.21875 304.6875 C 381.21832 304.593 381.06212 304.59799 381 304.5625 C 380.86873 304.51627 380.658 304.45534 380.4375 304.34375 L 380.40625 304.34375 L 380.375 304.3125 C 380.10921 304.12295 379.82272 303.93336 379.53125 303.75 C 379.24769 303.70738 378.93073 303.66304 378.6875 303.625 L 378.65625 303.625 C 378.24177 303.522 377.97667 303.46884 377.5625 303.21875 L 377.5625 303.1875 L 377.53125 303.1875 C 377.30428 303.02596 376.99887 302.79103 376.71875 302.53125 L 375.71875 301.625 C 375.65221 301.59536 375.63473 301.59568 375.5625 301.5625 C 375.26809 301.42724 374.90793 301.24092 374.625 300.9375 C 374.11743 300.3932 374.10235 300.28631 373.0625 300.25 C 372.52492 300.23123 372.19006 300.24409 371.96875 300.28125 C 371.74744 300.31841 371.62667 300.3737 371.375 300.53125 C 370.69971 300.95399 369.78757 301.09597 368.71875 301.0625 C 367.79061 301.03344 366.87587 300.71628 366.1875 300.3125 C 365.51816 299.9199 365.37262 299.89281 364.59375 299.46875 C 363.84681 299.0621 363.81034 298.97999 362.59375 298.9375 C 362.20777 298.92402 361.73452 298.89268 361.3125 298.90625 C 360.89048 298.91982 360.56027 299.03333 360.5625 299.03125 C 360.16437 299.40252 359.70012 299.76192 359.34375 300.03125 C 359.32088 300.04854 359.30361 300.04639 359.28125 300.0625 L 358 300.65625 C 355.64174 301.20772 352.3398 301.85155 350.5625 301.78125 C 350.55208 301.78151 350.54167 301.78151 350.53125 301.78125 C 349.13645 301.67317 347.81317 301.04599 345.625 299.875 C 345.59193 299.85703 345.56055 299.83611 345.53125 299.8125 C 345.00371 299.38792 344.1244 298.98814 343.25 298.53125 C 342.46134 298.11916 341.6945 297.59485 341.0625 296.9375 C 341.01876 296.91815 341.01125 296.89411 340.96875 296.875 C 338.87529 295.93365 338.21206 295.30185 336 294.78125 C 335.9877 294.77836 335.98115 294.78414 335.96875 294.78125 C 335.65104 294.77137 335.06382 294.82987 334.40625 294.90625 C 333.70947 294.98719 332.94159 295.08538 332.21875 295 C 330.88092 294.84199 329.50026 294.37498 328.90625 294.34375 C 328.73676 294.33329 328.57881 294.25432 328.46875 294.125 C 327.16577 292.57039 325.57896 291.70053 323.78125 290.59375 C 323.77047 290.5837 323.76005 290.57328 323.75 290.5625 C 321.73272 289.14917 319.12711 288.60448 316.625 288.6875 C 316.61458 288.68776 316.60417 288.68776 316.59375 288.6875 C 314.62761 288.68881 312.10542 289.13288 309.5 287.625 C 308.13703 287.6521 307.19567 287.19717 306.59375 286.53125 C 305.96007 285.83019 305.59088 285.03744 304.9375 284.375 C 304.01785 283.82535 303.15759 283.20077 302.5 282.34375 C 301.81006 281.44457 301.35003 280.31703 301.375 278.96875 L 306.875 227.90625 L 307 226.8125 L 308.90625 208.90625 L 297.40625 207.1875 z M 464.84375 521.90625 L 461.6875 525.4375 L 458.1875 530.875 L 454.875 537.75 L 453.34375 545.96875 L 453.90625 553.03125 L 456.65625 560.21875 L 457.21875 567.3125 L 458.125 567.09375 L 457.96875 565.625 L 457.46875 560.4375 L 454.875 553.25 L 454 547.125 L 454.3125 541.9375 L 456.34375 535.3125 L 460.71875 528.78125 L 465.46875 522.125 L 464.84375 521.90625 z "
       id="path42098" />
    <path
       d="M 624.55882,466.96958 L 624.30456,468.22573 L 619.13142,468.22573 L 617.67648,467.41743 L 615.57489,467.09411 L 608.78515,469.03403 L 607.00689,468.22573 L 604.42032,472.4289 L 603.31778,473.20692 L 602.19395,470.71894 L 601.05083,466.83235 L 597.6215,463.63164 L 598.7646,456.08709 L 598.07874,455.1726 L 596.24976,455.40122 L 588.01934,456.08709 L 563.78534,456.77296 L 563.3281,455.1726 L 564.01397,447.1708 L 567.44331,440.99799 L 572.70163,431.85309 L 571.78714,429.79549 L 572.93025,429.79549 L 573.61612,426.59477 L 571.32989,424.76579 L 571.55852,422.93681 L 569.50091,418.36436 L 569.21513,413.0203 L 570.58686,410.36256 L 570.18678,406.01873 L 568.81504,403.04663 L 570.18678,401.6749 L 568.81504,399.6173 L 569.27229,397.78832 L 570.18678,391.6155 L 573.15887,388.87204 L 572.473,386.81443 L 576.13097,381.5561 L 578.87444,380.64162 L 578.87444,378.12677 L 578.18857,376.75503 L 580.93204,371.49672 L 583.67551,370.3536 L 583.78295,366.94152 L 592.4584,366.86408 L 616.54585,364.92416 L 621.12643,364.69553 L 621.13451,371.06725 L 621.29617,387.71831 L 620.48787,418.75716 L 620.32621,432.82165 L 623.07445,451.57429 L 624.55882,466.96958 z "
       id="MS"
       style="fill: rgb(105, 141, 197); fill-opacity: 1; display: inline;" />
    <path
       d="M 618.42049,300.8552 L 618.48577,297.99662 L 618.97076,293.47011 L 621.234,290.56023 L 623.01228,286.68036 L 625.59884,282.47719 L 625.11386,276.6574 L 623.3356,273.90917 L 623.01228,270.67596 L 623.82058,265.17949 L 623.3356,258.22808 L 622.0423,242.22367 L 620.74902,226.86591 L 619.77855,215.14589 L 622.84961,216.0354 L 624.30456,217.00536 L 625.43618,216.68204 L 627.53777,214.74212 L 630.36734,213.12513 L 635.46014,212.96309 L 657.44601,210.69983 L 663.02174,210.16667 L 664.52488,226.12288 L 668.77623,262.96443 L 669.37469,268.73603 L 669.00319,270.99928 L 670.23117,272.79465 L 670.32756,274.1672 L 667.80627,275.76671 L 664.26684,277.31802 L 661.06471,277.8683 L 660.46625,282.73523 L 655.89156,286.0477 L 653.09514,290.05814 L 653.41846,292.43487 L 652.83712,293.96907 L 649.51065,293.96907 L 647.92512,292.35247 L 645.43181,293.61467 L 642.74885,295.11781 L 642.91052,298.17226 L 641.71673,298.43029 L 641.24885,297.41215 L 639.08197,295.90901 L 635.83165,297.25049 L 634.28034,300.25674 L 632.8425,299.44844 L 631.38755,297.84893 L 626.92321,298.33392 L 621.33038,299.30388 L 618.42049,300.8552 z "
       id="IN"
       style="fill: rgb(105, 141, 197); fill-opacity: 1; display: inline;" />
    <path
       style="fill: rgb(105, 141, 197); fill-opacity: 1; display: inline;"
       d="M 737.15625 224.40625 L 735.875 225.71875 L 734.90625 227.15625 L 736.03125 230.25 L 736.03125 234.9375 L 735.53125 239.9375 L 735.21875 245.59375 L 732.96875 249.46875 L 729.875 252.875 L 727.625 254.5 L 725.53125 254 L 724.21875 255.46875 L 721.96875 258.84375 L 721 260.15625 L 721 262.5625 L 722.125 264.34375 L 721.65625 265.96875 L 719.875 266.9375 L 719.375 265.15625 L 718.09375 264.03125 L 716.78125 264.6875 L 715.8125 268.5625 L 715.65625 273.5625 L 714.03125 275.03125 L 713.875 277.78125 L 711.9375 278.5625 L 709.75 278.65625 L 710 283.90625 L 710.8125 285.53125 L 713.40625 286.96875 L 714.03125 289.25 L 716.96875 292.96875 L 719.53125 295.71875 L 722.6875 297.6875 L 722.71875 297.71875 C 722.55637 297.9498 722.37035 298.17239 722.21875 298.40625 L 722.21875 298.4375 L 711.6875 309.90625 L 711.65625 309.9375 L 711.21875 310.5625 L 710.15625 312.0625 L 710.15625 312.09375 L 710.15625 314.125 L 701.6875 319.09375 L 710.59375 318.15625 L 718.96875 317.1875 L 726.09375 316.9375 L 726.3125 316.9375 L 728.25 315.5 L 728.90625 315.03125 L 735.59375 315.40625 L 773 310.125 L 831.1875 297.5625 L 831.1875 297.53125 L 827.59375 291.53125 L 827.59375 291.5 L 821.78125 293.1875 L 820.21875 291.71875 L 822.75 290.34375 L 822.78125 290.3125 L 822.28125 287.8125 L 820.5 286.03125 L 820.5 286 L 820.375 284.625 L 820.375 284.59375 L 818.09375 283.0625 L 818.03125 281.46875 L 820.6875 281.5625 L 820.6875 281.53125 L 820.71875 281.53125 L 820.9375 280.15625 L 819.71875 279.375 L 820.1875 277.4375 L 818.8125 276.34375 L 819.25 271.65625 L 818.375 270.46875 L 818.375 270.4375 L 815.1875 270.03125 L 813.03125 267.9375 L 808.1875 267 L 805.21875 266.03125 L 801.3125 264.59375 L 799.34375 263.3125 L 798.875 260.90625 L 799.375 259.15625 L 800.625 257.875 L 800.625 257.84375 L 800.8125 257 L 801.0625 256 L 801.25 255.15625 L 801.46875 254.1875 L 800.1875 252.375 L 798.875 251.90625 L 798.875 251.875 L 798.375 251.71875 L 798.15625 251.65625 L 794.90625 250.46875 L 792.0625 249.4375 L 792.5 246.8125 L 788.46875 245.40625 C 788.23617 245.18258 787.9931 244.98732 787.75 244.8125 L 786.375 243.5 L 784.4375 241.71875 L 782.1875 240.625 L 780.90625 239.59375 L 779.0625 240.09375 L 777.03125 241.53125 L 774.46875 243.65625 L 771.53125 243.96875 L 770.375 243.3125 L 768.59375 245.90625 L 767.125 247.375 L 764.59375 247.96875 L 762.34375 251.0625 L 758.78125 253.78125 L 757.6875 246.875 L 756.5625 241.9375 L 745.28125 243.5 L 740.65625 244.25 L 737.15625 224.40625 z M 835.21875 264.71875 L 828.78125 267.28125 L 828.78125 267.3125 L 828.75 267.3125 L 828.90625 269.25 L 828.125 272.34375 L 827.15625 274.9375 L 826.5625 276.5 L 826.5625 276.53125 L 826.53125 276.9375 L 826.09375 281.96875 L 827.5625 286.625 L 827.59375 286.59375 L 829.75 284.6875 L 831.5625 279.71875 L 831.59375 279.6875 L 831.125 276.3125 L 831.5 272.15625 L 831.53125 271.75 L 831.53125 271.71875 L 833.78125 268.8125 L 834.4375 267.96875 L 834.46875 267.9375 L 835.03125 265.5 L 835.21875 264.75 L 835.21875 264.71875 z "
       id="VA" />
    <path
       d="M 923.21476,77.330719 L 925.15469,79.432305 L 927.41794,83.150496 L 927.41794,85.090422 L 925.31635,89.778575 L 923.37642,90.425217 L 919.98155,93.496766 L 915.13174,98.993222 C 915.13174,98.993222 914.4851,98.993222 913.83846,98.993222 C 913.19182,98.993222 912.86849,96.891636 912.86849,96.891636 L 911.09023,97.053296 L 910.12027,98.508241 L 907.69536,99.963185 L 906.7254,101.41813 L 908.342,102.87307 L 907.85702,103.51972 L 907.37204,106.26794 L 905.43211,106.10628 L 905.43211,104.48968 L 905.10879,103.19639 L 903.65385,103.51972 L 901.87558,100.28651 L 899.774,101.57979 L 901.06728,103.03473 L 901.3906,104.16636 L 900.5823,105.45964 L 900.90562,108.53119 L 901.06728,110.14779 L 899.45068,112.73436 L 896.54079,113.21934 L 896.21747,116.12923 L 890.88267,119.20078 L 889.58939,119.68576 L 887.97278,118.23082 L 884.90123,121.78735 L 885.8712,125.02056 L 884.41625,126.31384 L 884.25459,130.67867 L 883.13131,136.93803 L 880.66906,135.78208 L 880.18407,132.71052 L 876.30422,131.57889 L 875.9809,128.83065 L 868.70615,105.38983 L 864.50757,91.750088 L 865.92811,91.631923 L 867.4419,92.041822 L 867.4419,89.455254 L 868.2502,83.958798 L 870.83677,79.270645 L 872.29172,75.229133 L 870.35179,72.804226 L 870.35179,66.822789 L 871.16009,65.852826 L 871.9684,63.104598 L 871.80674,61.649654 L 871.64507,56.79984 L 873.42334,51.950026 L 876.33323,43.0587 L 878.43481,38.855528 L 879.7281,38.855528 L 881.02138,39.017188 L 881.02138,40.148811 L 882.31467,42.412058 L 885.06289,43.0587 L 885.8712,42.250397 L 885.8712,41.280435 L 889.91271,38.370546 L 891.69097,36.592281 L 893.14592,36.753942 L 899.12735,39.178849 L 901.06728,40.148811 L 910.12027,70.055998 L 916.1017,70.055998 L 916.91001,71.995924 L 917.07167,76.845738 L 919.98155,79.108984 L 920.78986,79.108984 L 920.95152,78.624003 L 920.46654,77.49238 L 923.21476,77.330719 z M 902.28301,107.47825 L 903.81879,105.94247 L 905.19291,106.99327 L 905.75872,109.41819 L 904.06128,110.30732 L 902.28301,107.47825 z M 908.99194,101.57763 L 910.77021,103.43673 C 910.77021,103.43673 912.0635,103.51755 912.0635,103.19423 C 912.0635,102.87091 912.30599,101.17347 912.30599,101.17347 L 913.19513,100.36517 L 912.38682,98.586893 L 910.36606,99.31437 L 908.99194,101.57763 z "
       id="ME"
       style="fill: rgb(105, 141, 197); fill-opacity: 1; display: inline;" />
    <path
       d="M 612.94089,197.18116 L 613.31165,194.21124 L 611.69504,189.68474 L 611.0484,183.54165 L 609.91678,181.11674 L 610.88674,178.04519 L 611.69504,175.1353 L 613.14999,172.54874 L 612.50334,169.15387 L 611.8567,165.59734 L 612.34168,163.81907 L 614.28161,161.39416 L 614.44327,158.64593 L 613.63497,157.35265 L 614.28161,154.76608 L 614.76659,151.53287 L 617.51482,145.87476 L 620.42471,139.08502 L 620.58637,136.82177 L 620.26305,135.85181 L 619.45474,136.33679 L 615.25157,142.64155 L 612.50334,146.68306 L 610.56342,148.46133 L 609.75512,150.72457 L 608.30017,151.53287 L 607.16855,153.4728 L 605.7136,153.14948 L 605.55194,151.37121 L 606.84523,148.94631 L 608.94681,144.25815 L 610.72508,142.64155 L 611.8264,140.34999 L 610.19574,139.44474 L 608.824,138.073 L 607.22364,127.78498 L 603.56569,126.64187 L 602.19395,124.35564 L 589.6197,121.61217 L 587.10485,120.46906 L 578.87444,118.18283 L 570.64402,117.03971 L 566.47456,111.63491 L 565.94513,112.89602 L 564.81351,112.73436 L 564.16686,111.60274 L 561.41864,110.79444 L 560.28701,110.9561 L 558.50875,111.92606 L 557.53878,111.27942 L 558.18543,109.33949 L 560.12535,106.26794 L 561.25697,105.13632 L 559.31705,103.68138 L 557.21546,104.48968 L 554.30557,106.4296 L 546.86919,109.66281 L 543.9593,110.30945 L 541.04942,109.82447 L 540.06769,108.94622 L 537.95099,111.7814 L 537.72237,114.52487 L 537.72237,122.9839 L 536.57925,124.58427 L 531.32093,128.47084 L 529.03471,134.41503 L 529.49195,134.64365 L 532.0068,136.70126 L 532.69266,139.90198 L 530.86368,143.10269 L 530.86368,146.98928 L 531.32093,153.61933 L 534.29302,156.59143 L 537.72237,156.59143 L 539.55135,159.79215 L 542.98068,160.24939 L 546.86727,165.96496 L 553.95457,170.08017 L 556.01217,172.82364 L 556.92667,180.25388 L 557.61253,183.5689 L 559.89876,185.16926 L 560.12738,186.541 L 558.06978,189.97033 L 558.2984,193.17106 L 560.81325,197.05764 L 563.3281,198.20075 L 566.30019,198.65799 L 567.64253,200.03811 L 576.81603,200.03809 L 602.88316,198.55122 L 612.94089,197.18116 z "
       id="WI"
       style="fill: rgb(105, 141, 197); fill-opacity: 1; display: inline;" />
    <path
       d="M 566.59351,201.62843 L 566.76414,203.57088 L 569.05036,204.71064 L 570.1918,205.96722 L 570.53556,207.22883 L 574.42215,210.43123 L 575.10802,212.60398 L 574.30868,215.46595 L 572.82012,219.01043 L 572.02078,221.75222 L 569.84803,223.35426 L 568.13252,223.92666 L 562.64725,225.41186 L 561.96138,227.69475 L 561.16204,229.9793 L 561.73443,231.35104 L 563.44994,233.06488 L 563.44826,236.72617 L 561.27886,238.32653 L 560.81995,239.81342 L 560.81995,242.32994 L 559.33139,242.78718 L 557.61755,244.15725 L 557.16198,245.64246 L 557.61755,247.35964 L 556.24331,248.56409 L 553.94955,245.87276 L 552.46601,243.24611 L 544.12548,244.04544 L 533.95428,244.61617 L 508.91758,245.30372 L 495.88274,245.53234 L 486.50922,245.76096 L 485.19344,245.88221 L 483.53879,241.41044 L 483.31017,234.78037 L 481.70981,230.66516 L 481.02395,225.40685 L 478.73772,221.74888 L 477.82324,216.94781 L 475.07976,209.40326 L 473.93665,204.03062 L 472.56491,201.85871 L 470.96455,199.11525 L 472.79353,194.77142 L 474.16527,189.05585 L 471.4218,186.99824 L 470.96455,184.25477 L 471.87905,181.73992 L 473.59372,181.73992 L 485.13916,181.73992 L 534.75027,181.05405 L 554.62705,180.36819 L 556.47778,183.115 L 558.31012,185.73663 L 558.76569,186.541 L 556.93503,189.28949 L 557.3906,193.51148 L 559.90546,197.39807 L 562.8742,199.22202 L 565.27892,199.45232 L 566.59351,201.62843 z "
       id="IA"
       style="fill: rgb(105, 141, 197); fill-opacity: 1; display: inline;" />
    <path
       d="M 731.43589,195.0077 L 725.34235,199.06105 L 721.4625,201.3243 L 718.06763,205.04249 L 714.02612,208.92234 L 710.79291,209.73064 L 707.88302,210.21562 L 702.38656,212.80219 L 700.28498,212.96385 L 696.89011,209.8923 L 691.71697,210.53895 L 689.13041,209.084 L 686.74934,207.73317 L 681.85677,208.43658 L 671.67215,210.05319 L 663.91243,211.26565 L 665.20572,225.89593 L 666.98399,239.6371 L 669.57055,263.0779 L 670.13637,267.90907 L 674.25872,267.78005 L 676.68363,266.97174 L 680.04743,268.47488 L 682.11792,272.83971 L 687.25686,272.82261 L 689.1486,274.94131 L 690.90977,274.87601 L 693.44816,273.53455 L 695.95233,273.90605 L 697.92646,275.361 L 699.65343,273.22832 L 701.99908,271.93504 L 704.06957,271.25419 L 704.71621,274.00243 L 706.49449,274.97239 L 709.97018,277.31646 L 712.1526,277.23564 L 713.29822,276.08691 L 713.23293,274.70038 L 714.84954,273.24542 L 715.0112,268.23395 C 715.0112,268.23395 715.98116,264.35409 715.98116,264.35409 L 717.5014,262.91312 L 719.02163,263.8178 L 719.84704,265.02868 L 721.05794,264.85305 L 720.63513,262.44212 L 720.07087,261.7986 L 720.07087,259.37368 L 721.04084,258.0804 L 723.30408,254.68553 L 724.59737,253.23058 L 726.69896,253.71556 L 728.96221,252.09895 L 732.03376,248.70408 L 734.29702,244.82422 L 734.50686,239.39306 L 734.99184,234.38157 L 734.99184,229.69341 L 733.86022,226.62186 L 734.83018,225.16691 L 735.75069,224.2123 L 734.34578,214.36947 L 731.43589,195.0077 z "
       id="OH"
       style="fill: rgb(105, 141, 197); fill-opacity: 1; display: inline;" />
    <path
       d="M 590.95215,344.95331 L 587.10485,345.89098 L 580.93204,345.43373 L 581.61791,342.46164 L 584.81863,339.71817 L 585.27587,337.43194 L 583.44689,334.45984 L 572.473,334.91709 L 551.66834,335.83158 L 528.34883,336.51745 L 505.02932,336.97469 L 506.62968,343.83338 L 506.62967,352.0638 L 508.00142,363.03779 L 508.23004,400.87472 L 510.51627,402.81801 L 513.48836,401.44628 L 516.23184,402.58939 L 516.66218,412.91269 L 539.548,412.77064 L 558.41187,411.96962 L 568.53344,411.77209 L 569.67907,409.68172 L 569.39245,406.13221 L 567.56682,403.16011 L 569.16551,401.6749 L 567.56682,399.1634 L 568.25102,396.65357 L 569.61941,391.04814 L 572.1376,388.98551 L 571.45173,386.70095 L 575.1097,381.32916 L 577.85317,379.96077 L 577.73969,378.46719 L 577.39425,376.64155 L 580.2512,371.04282 L 582.65424,369.78623 L 583.03837,366.3586 L 584.80904,365.1169 L 585.66552,360.88263 L 584.32406,356.87219 L 588.36558,354.49548 L 588.91584,352.47628 L 590.15112,348.2087 L 590.95215,344.95331 z "
       id="AR"
       style="fill: rgb(105, 141, 197); fill-opacity: 1; display: inline;" />
    <path
       d="M 880.79902,142.42476 L 881.66802,141.34826 L 882.75824,138.05724 L 880.21516,137.14377 L 879.73017,134.07221 L 875.85032,132.94059 L 875.527,130.19235 L 868.25225,106.75153 L 863.65083,92.208542 L 862.75375,92.203482 L 862.10711,93.820087 L 861.46047,93.335106 L 860.4905,92.365143 L 859.03556,94.305068 L 858.98709,99.337122 L 859.29874,105.00434 L 861.23866,107.75258 L 861.23866,111.7941 L 857.52046,116.85688 L 854.93389,117.98852 L 854.93389,119.12014 L 856.06552,120.89841 L 856.06552,129.46643 L 855.25721,138.6811 L 855.09555,143.53092 L 856.06552,144.82422 L 855.90386,149.35071 L 855.41887,151.12899 L 856.87382,152.01499 L 873.26374,147.32527 L 875.527,146.67863 L 877.06121,144.12627 L 880.79902,142.42476 z "
       id="NH"
       style="fill: rgb(105, 141, 197); fill-opacity: 1; display: inline;" />
    <path
       d="M 625.5666,466.77087 L 623.951,451.57437 L 621.2028,432.82173 L 621.3645,418.75724 L 622.1728,387.71839 L 622.0111,371.06733 L 622.1762,364.64827 L 629.9325,364.27758 L 657.7381,361.69102 L 666.6607,361.02882 L 666.5129,363.21124 L 666.6745,365.31284 L 667.3212,368.70771 L 670.7161,376.62908 L 673.141,386.49039 L 674.5959,392.6335 L 676.2125,397.48332 L 677.6675,404.43473 L 679.769,410.73949 L 682.3556,414.13438 L 682.8406,417.52924 L 684.7805,418.33755 L 684.9422,420.43914 L 683.1639,425.28896 L 682.6789,428.52218 L 682.5173,430.4621 L 684.1339,434.82695 L 684.4572,440.16174 L 683.6489,442.58666 L 684.2956,443.39496 L 685.7505,444.20326 L 686.7857,446.73853 L 680.481,446.73853 L 673.6912,447.38518 L 648.1488,450.29506 L 637.7373,451.70183 L 637.6409,455.45423 L 639.4192,457.2325 L 642.0057,459.17242 L 642.5866,467.10786 L 637.0445,469.68076 L 634.2963,469.35744 L 637.0445,467.41751 L 637.0445,466.44755 L 633.973,460.46611 L 631.7097,459.81947 L 630.2548,464.1843 L 628.9615,466.93253 L 628.3149,466.77087 L 625.5666,466.77087 z "
       id="path44043"
       style="fill: rgb(105, 141, 197); fill-opacity: 1; display: inline;" />
    <path
       d="M 555.7884,249.51478 L 553.2686,246.42753 L 552.1255,244.1413 L 544.3523,244.82717 L 534.5215,245.28441 L 509.1444,246.19891 L 495.6557,246.42753 L 487.7682,246.54184 L 485.482,246.65615 L 486.7394,249.171 L 486.5108,251.45722 L 489.0256,255.34381 L 492.112,259.45902 L 495.1984,262.20249 L 497.4847,262.43111 L 498.8564,263.34561 L 498.8564,266.3177 L 497.0274,267.91806 L 496.5702,270.20428 L 498.6278,273.63363 L 501.1426,276.60572 L 503.6575,278.4347 L 505.0292,290.09445 L 504.3433,325.41666 L 504.572,330.10341 L 505.0292,335.48692 L 528.4622,335.3701 L 551.6682,334.68423 L 572.4729,333.88322 L 584.1276,333.65292 L 586.297,337.07892 L 585.6128,340.38642 L 582.5256,342.78946 L 581.9532,344.6268 L 587.3317,345.08406 L 591.2266,344.39818 L 592.9438,338.90455 L 593.5952,333.04776 L 595.9142,331.02293 L 597.6264,329.53604 L 599.684,328.5064 L 599.7991,325.64611 L 600.3732,323.9306 L 599.3419,322.18233 L 596.5968,322.3269 L 594.4274,319.70191 L 593.0539,315.47324 L 593.8549,312.95504 L 591.9108,309.52738 L 590.0802,304.95158 L 585.2808,304.15224 L 578.312,298.55349 L 576.5931,294.43996 L 577.3925,291.23924 L 579.4517,285.18157 L 579.9106,282.31794 L 577.9615,281.28663 L 571.1062,280.48896 L 570.0782,278.7768 L 569.9664,274.54644 L 564.4795,271.11543 L 557.5039,263.34393 L 555.2177,256.028 L 554.9874,251.80268 L 555.7884,249.51478 z "
       id="path3492"
       style="fill: rgb(105, 141, 197); fill-opacity: 1; display: inline;" />
    <path
       d="M 617.805,301.60173 L 617.805,297.99702 L 618.06303,293.13009 L 620.43975,289.99326 L 622.21802,286.22686 L 624.80459,282.36411 L 624.43309,277.11171 L 622.42788,273.56914 L 622.3315,270.22246 L 623.02633,264.95295 L 622.20092,257.77458 L 621.13458,241.99713 L 619.8413,226.97979 L 618.91902,215.34059 L 618.64651,214.4192 L 617.83821,211.83263 L 616.54493,208.11444 L 614.92832,206.33617 L 613.47338,203.74961 L 613.23981,198.26065 L 603.33714,199.57289 L 576.13105,201.28756 L 567.44338,200.8589 L 567.672,203.23085 L 569.95823,203.91672 L 570.87271,205.05983 L 571.32996,206.88881 L 575.21654,210.31815 L 575.90242,212.60438 L 575.21654,216.03372 L 573.38756,219.69168 L 572.7017,222.20652 L 570.41547,224.03551 L 568.58649,224.72138 L 563.32817,226.09311 L 562.6423,227.92209 L 561.95643,229.9797 L 562.6423,231.35144 L 564.47128,232.9518 L 564.24266,237.067 L 562.41367,238.66736 L 561.72781,240.26772 L 561.72781,243.01119 L 559.89883,243.46843 L 558.29847,244.61155 L 558.06985,245.98329 L 558.29847,248.04089 L 556.5838,249.35546 L 555.555,252.1561 L 556.01224,255.81405 L 558.29847,263.12998 L 565.6144,270.67453 L 571.10133,274.33249 L 570.87271,278.67632 L 571.78721,280.04806 L 578.18864,280.5053 L 580.93211,281.87704 L 580.24625,285.535 L 577.96002,291.47919 L 577.27415,294.67991 L 579.56037,298.56649 L 585.96181,303.82481 L 590.53427,304.51068 L 592.59186,309.54038 L 594.64947,312.74109 L 593.73498,315.71318 L 595.33534,319.82839 L 597.16432,321.886 L 599.10868,321.0937 L 599.79537,318.93052 L 601.83167,317.49268 L 605.068,316.39214 L 608.15666,317.57194 L 611.03235,318.63828 L 611.82355,318.42844 L 611.75826,317.18646 L 610.69193,314.42112 L 611.12873,312.0444 L 613.40907,310.47597 L 615.7687,309.48891 L 616.93141,309.06922 L 616.35005,307.74484 L 615.58993,305.57797 L 616.83503,304.31576 L 617.805,301.60173 z "
       id="path13333"
       style="fill: rgb(105, 141, 197); fill-opacity: 1; display: inline;" />
    <path
       d="M 581.5892,82.062198 L 583.4182,80.004588 L 585.5901,79.204408 L 590.9628,75.317808 L 593.249,74.746248 L 593.7062,75.203508 L 588.5622,80.347528 L 585.2472,82.290818 L 583.1896,83.205308 L 581.5892,82.062198 z M 667.7636,114.19038 L 668.4102,116.69612 L 671.6435,116.85778 L 672.9367,115.64532 C 672.9367,115.64532 672.8559,114.19038 672.5326,114.02871 C 672.2093,113.86705 670.916,112.16961 670.916,112.16961 L 668.7336,112.4121 L 667.1169,112.57376 L 666.7936,113.70539 L 667.7636,114.19038 z M 697.83,177.24008 L 694.5968,168.99539 L 692.3335,159.94241 L 689.9086,156.7092 L 687.322,154.93093 L 685.7054,156.06256 L 681.8256,157.84082 L 679.8857,162.8523 L 677.1374,166.57049 L 676.0058,167.21713 L 674.5509,166.57049 C 674.5509,166.57049 671.9643,165.11554 672.126,164.4689 C 672.2876,163.82226 672.6109,159.45743 672.6109,159.45743 L 676.0058,158.16414 L 676.8141,154.76927 L 677.4608,152.18271 L 679.8857,150.5661 L 679.5623,140.54315 L 677.9457,138.27991 L 676.6525,137.4716 L 675.8442,135.37002 L 676.6525,134.56172 L 678.2691,134.88504 L 678.4307,133.26843 L 676.0058,131.00518 L 674.7125,128.41862 L 672.126,128.41862 L 667.5995,126.96367 L 662.103,123.5688 L 659.3548,123.5688 L 658.7081,124.21545 L 657.7382,123.73046 L 654.6666,121.46722 L 651.7567,123.24548 L 648.8469,125.50873 L 649.1702,129.06526 L 650.1401,129.38858 L 652.2417,129.87356 L 652.7267,130.68186 L 650.1401,131.49017 L 647.5536,131.81349 L 646.0986,133.59175 L 645.7753,135.69334 L 646.0986,137.30994 L 646.4219,142.8064 L 642.8654,144.90799 L 642.2188,144.74632 L 642.2188,140.54315 L 643.5121,138.11825 L 644.1587,135.69334 L 643.3504,134.88504 L 641.4105,135.69334 L 640.4405,139.89651 L 637.6923,141.02813 L 635.914,142.96806 L 635.7524,143.93802 L 636.399,144.74632 L 635.7524,147.33289 L 633.4891,147.81787 L 633.4891,148.9495 L 634.2974,151.3744 L 633.1658,157.5175 L 631.5492,161.55901 L 632.1958,166.24717 L 632.6808,167.37879 L 631.8725,169.8037 L 631.5492,170.612 L 631.2259,173.36023 L 634.7824,179.34166 L 637.6923,185.80808 L 639.1472,190.6579 L 638.3389,195.34605 L 637.369,201.32749 L 634.9441,206.50062 L 634.6207,209.24885 L 631.3619,212.334 L 635.7705,212.17195 L 657.189,209.9087 L 664.4668,208.92164 L 664.5632,210.58799 L 671.4151,209.37553 L 681.7132,207.8724 L 685.5674,207.41149 L 685.7054,206.82394 L 685.8671,205.369 L 687.9687,201.65081 L 689.9692,199.91296 L 689.747,194.86107 L 691.3439,193.26408 L 692.4346,192.92114 L 692.6568,189.36461 L 694.1926,186.33349 L 695.2434,186.93971 L 695.4051,187.58635 L 696.2134,187.74801 L 698.1533,186.77805 L 697.83,177.24008 z M 567.462,111.21637 L 568.1783,110.63597 L 570.9265,109.82766 L 574.483,107.56442 L 574.483,106.59445 L 575.1297,105.94781 L 581.1111,104.97785 L 583.536,103.03792 L 587.9009,100.93634 L 588.0625,99.643048 L 590.0024,96.733158 L 591.7807,95.924858 L 593.074,94.146598 L 595.3372,91.883348 L 599.7021,89.458438 L 604.3902,88.973458 L 605.5218,90.105088 L 605.1985,91.075048 L 601.4803,92.045008 L 600.0254,95.116558 L 597.7621,95.924858 L 597.2772,98.349768 L 594.8523,101.58298 L 594.5289,104.16955 L 595.3372,104.65453 L 596.3072,103.52291 L 599.8637,100.61302 L 601.157,101.9063 L 603.4203,101.9063 L 606.6535,102.87626 L 608.1084,104.00789 L 609.5634,107.07944 L 612.3116,109.82766 L 616.1914,109.666 L 617.6464,108.69604 L 619.263,109.98932 L 620.8796,110.47431 L 622.1729,109.666 L 623.3045,109.666 L 624.9211,108.69604 L 628.9626,105.13951 L 632.3575,104.00789 L 638.9856,103.68457 L 643.5121,101.74464 L 646.0986,100.45136 L 647.5536,100.61302 L 647.5536,106.27113 L 648.0386,106.59445 L 650.9484,107.40276 L 652.8884,106.91777 L 659.0315,105.30117 L 660.1631,104.16955 L 661.618,104.65453 L 661.618,111.60593 L 664.8512,114.67748 L 666.1445,115.32412 L 667.4378,116.29408 L 666.1445,116.6174 L 665.3362,116.29408 L 661.618,115.8091 L 659.5164,116.45574 L 657.2532,116.29408 L 654.02,117.74903 L 652.2417,117.74903 L 646.4219,116.45574 L 641.2488,116.6174 L 639.3089,119.20397 L 632.3575,119.85061 L 629.9326,120.65891 L 628.801,123.73046 L 627.5077,124.86209 L 627.0227,124.70043 L 625.5677,123.08382 L 621.0413,125.50873 L 620.3946,125.50873 L 619.263,123.89212 L 618.4547,124.05378 L 616.5148,128.41862 L 615.5448,132.46013 L 612.3637,139.46093 L 611.1869,138.42666 L 609.8152,137.39534 L 607.8744,127.10732 L 604.3299,125.73727 L 602.2773,123.45104 L 590.157,120.70756 L 587.3017,119.67792 L 579.0713,117.50518 L 571.1813,116.36206 L 567.462,111.21637 z "
       id="path8536"
       style="fill: rgb(105, 141, 197); fill-opacity: 1; display: inline;" />
  </g>
  <g
     inkscape:groupmode="layer"
     id="layer1"
     inkscape:label="Labels"
     style="display: inline;">
    <text
       xml:space="preserve"
       style="font-size: 40px; font-style: normal; font-weight: normal; fill: rgb(0, 0, 0); fill-opacity: 1; stroke: none; stroke-width: 1px; stroke-linecap: butt; stroke-linejoin: miter; stroke-opacity: 1; font-family: Bitstream Vera Sans; display: inline;"
       x="115.966"
       y="48.5278"
       id="text3328"><tspan
         sodipodi:role="line"
         id="tspan3330"
         x="115.966"
         y="48.5278" /></text>
  </g>
</svg>
